<svg width="441" height="441" xmlns="http://www.w3.org/2000/svg" xml:space="preserve" version="1.1">

 <g>
  <title>Layer 1</title>
  <g id="svg_1">
   <g id="svg_2" fill="#000">
    <path id="svg_3" data-original="#000000" fill="#000000" d="m220.575,441.29178a219.93,219.93 0 0 1 -156.036,-64.53c-86.052,-86.051 -86.052,-226.057 0,-312.108a219.255,219.255 0 0 1 156.054,-64.653c58.95,0 114.37,22.951 156.036,64.653c41.684,41.684 64.653,97.103 64.653,156.054s-22.952,114.37 -64.653,156.054a219.989,219.989 0 0 1 -156.054,64.53zm0.018,-405.98a184.107,184.107 0 0 0 -131.09,54.306c-35.01,35.011 -54.29,81.567 -54.29,131.09s19.28,96.062 54.29,131.09c72.28,72.28 189.899,72.298 262.162,0c35.01,-35.01 54.307,-81.567 54.307,-131.09s-19.28,-96.062 -54.307,-131.09a184.192,184.192 0 0 0 -131.072,-54.307l0,0.001z"/>
    <path id="svg_4" data-original="#000000" fill="#000000" d="m145.677,313.24978a17.64,17.64 0 0 1 -16.334,-10.888a17.64,17.64 0 0 1 3.852,-19.249l149.804,-149.804a17.65,17.65 0 0 1 24.964,0a17.65,17.65 0 0 1 0,24.964l-149.804,149.805a17.53,17.53 0 0 1 -12.482,5.172z"/>
    <path id="svg_5" data-original="#000000" fill="#000000" d="m295.491,313.24978a17.59,17.59 0 0 1 -12.482,-5.172l-149.805,-149.805a17.654,17.654 0 0 1 24.965,-24.964l149.804,149.804a17.632,17.632 0 0 1 3.852,19.249a17.645,17.645 0 0 1 -6.512,7.927a17.642,17.642 0 0 1 -9.822,2.961z"/>
   </g>
  </g>
 </g>
</svg>