<svg id="Capa_1" enable-background="new 0 0 512 512" height="512" viewBox="0 0 512 512" width="512" xmlns="http://www.w3.org/2000/svg"><g><path d="m440.859 314.934-65.284 48.215c-6.367 4.548-13.346 8.005-20.649 10.343 3.879-11.228 3.22-23.263-1.917-34.031-5.311-11.133-14.68-19.413-26.415-23.325l-130.313-43.115c-39.22-13.076-91.979-7.421-127.201 23.971h-54.08c-8.284 0-15 6.716-15 15v150c0 8.284 6.716 15 15 15h60c8.284 0 15-6.716 15-15v-11.209l117.65 26.735c21.455 4.912 43.444 7.49 63.792 7.49.93 0 1.857-.005 2.78-.016 56.932-.667 111.918-18.798 159.013-52.435l59.933-44.389c20.981-14.986 25.094-44.591 8.984-64.728-14.926-18.658-41.85-22.394-61.293-8.506zm-380.859 132.058h-30v-120h30zm415.731-83.236-59.933 44.389c-42.08 30.055-91.157 46.255-141.927 46.849-18.776.219-39.366-2.104-59.55-6.724l-124.321-28.251v-101.481c32.32-28.053 76.939-23.676 96.825-17.046l130.314 43.115c3.9 1.3 7.023 4.06 8.793 7.771 1.771 3.711 1.95 7.875.507 11.724-2.846 7.589-11.101 11.526-18.787 8.963-.015-.005-.029-.007-.044-.012l-91.907-30.305c-7.868-2.594-16.348 1.681-18.943 9.548-2.594 7.868 1.681 16.349 9.548 18.943l92.472 30.491c31.762 10.588 66.99 5.29 94.234-14.17l65.284-48.214c6.481-4.629 15.454-3.384 20.43 2.835 5.36 6.7 4.041 16.549-2.995 21.575z"/><path d="m405.917 154.889c-8.007-4.273-17.246-5.987-26.181-7.645-6.692-1.242-13.613-2.525-17.527-4.614-1.996-1.066-1.996-1.342-1.996-3.138 0-1.063 1.73-3.003 5.038-4.657 8.19-4.094 19.74-3.759 25.749.748 6.629 4.971 16.029 3.627 21-3s3.628-16.029-3-21c-4.933-3.7-10.755-6.344-17-7.917v-3.673c0-8.284-6.716-15-15-15s-15 6.716-15 15v4.123c-3.494.969-6.908 2.258-10.165 3.887-13.741 6.87-21.622 18.348-21.622 31.49 0 13.127 6.18 23.364 17.871 29.604 8.006 4.273 17.245 5.987 26.18 7.645 6.693 1.242 13.613 2.525 17.527 4.614 1.996 1.065 1.996 1.342 1.996 3.137 0 1.028-1.775 3.007-5.064 4.652-8.183 4.092-19.723 3.758-25.723-.742-6.627-4.971-16.029-3.626-21 3-4.971 6.628-3.627 16.03 3 21 4.933 3.7 10.756 6.342 17 7.914v3.676c0 8.284 6.716 15 15 15s15-6.716 15-15v-4.145c3.485-.968 6.891-2.246 10.14-3.871 13.757-6.879 21.647-18.354 21.647-31.485 0-13.127-6.18-23.363-17.87-29.603z"/><path d="m377 296.992c74.439 0 135-60.561 135-135s-60.561-135-135-135-135 60.561-135 135 60.561 135 135 135zm0-240c57.897 0 105 47.103 105 105s-47.103 105-105 105-105-47.103-105-105 47.103-105 105-105z"/></g></svg>