<?xml version="1.0" encoding="utf-8"?>
<!-- Generator: Adobe Illustrator 25.0.0, SVG Export Plug-In . SVG Version: 6.00 Build 0)  -->
<svg version="1.1" id="Capa_1" xmlns="http://www.w3.org/2000/svg" xmlns:xlink="http://www.w3.org/1999/xlink" x="0px" y="0px"
	 viewBox="0 0 1138 365" style="enable-background:new 0 0 1138 365;" xml:space="preserve">
<style type="text/css">
	.st0{fill-rule:evenodd;clip-rule:evenodd;fill:#020203;}
	
		.st1{fill-rule:evenodd;clip-rule:evenodd;fill:none;stroke:#B21917;stroke-linecap:round;stroke-linejoin:round;stroke-miterlimit:10;}
	.st2{fill-rule:evenodd;clip-rule:evenodd;fill:#010202;}
	
		.st3{fill-rule:evenodd;clip-rule:evenodd;fill:none;stroke:#020203;stroke-linecap:round;stroke-linejoin:round;stroke-miterlimit:10;}
	
		.st4{fill-rule:evenodd;clip-rule:evenodd;fill:#020203;stroke:#020203;stroke-linecap:round;stroke-linejoin:round;stroke-miterlimit:10;}
	.st5{fill-rule:evenodd;clip-rule:evenodd;fill:#FFFFFF;}
</style>
<path class="st0" d="M200,19.48c99.1,0,179.44,73.31,179.44,163.74S299.1,346.96,200,346.96S20.56,273.65,20.56,183.22
	S100.9,19.48,200,19.48z M200,0.72c110.46,0,200,81.71,200,182.5s-89.54,182.5-200,182.5S0,284.01,0,183.22S89.54,0.72,200,0.72z"/>
<path class="st0" d="M1044,217.04c1.79,0.62,3.06,1.09,3.75,1.4c5.54,2.27,11.71,3.87,18.58,4.83c6.81,0.98,13.79,1.45,20.89,1.45
	c5.08,0,10.1-0.21,15.06-0.67c4.97-0.47,9.47-1.22,13.45-2.3c3.98-1.09,7.21-2.49,9.63-4.22c2.43-1.73,3.64-3.88,3.64-6.44
	c0-2.22-0.87-4.09-2.6-5.59c-1.73-1.47-4.04-2.69-6.98-3.67c-2.94-0.98-6.29-1.73-10.04-2.3c-3.75-0.57-7.67-0.98-11.77-1.29
	c-2.31-0.21-4.45-0.39-6.46-0.55c-2.08-0.15-4.1-0.33-6.12-0.54c-1.85-0.21-3.64-0.39-5.48-0.54c-1.85-0.16-3.64-0.31-5.43-0.52
	c-3.23-0.52-5.94-1.21-8.19-2.15c-2.31-0.93-3.41-2.19-3.41-3.82c0-1.43,0.93-2.67,2.77-3.75c1.85-1.09,4.1-1.94,6.64-2.62
	c2.54-0.67,5.25-1.16,8.14-1.52c2.88-0.36,5.54-0.54,7.84-0.54c3.93,0,7.27,0.07,9.93,0.23c2.65,0.15,5.13,0.39,7.33,0.7
	c2.19,0.33,4.44,0.75,6.75,1.26c2.31,0.52,5.02,1.22,8.02,2.12h0.35l8.71-3.64c-6.58-1.71-12.81-3.08-18.7-4.11
	c-5.88-1.01-12.92-1.53-21.06-1.53c-5.02,0-9.98,0.26-14.83,0.75c-4.85,0.52-9.29,1.32-13.21,2.41c-3.99,1.11-7.22,2.5-9.7,4.21
	c-2.54,1.71-3.75,3.75-3.75,6.13c0,2.2,0.87,4.03,2.71,5.53c1.79,1.5,4.1,2.75,6.93,3.68c2.83,0.95,6.17,1.7,10.04,2.25
	c3.81,0.57,7.79,1.03,11.89,1.42c4.27,0.52,8.36,0.88,12.34,1.14c3.93,0.26,7.62,0.62,11.03,1.11c3.11,0.52,5.82,1.16,8.13,1.96
	c2.25,0.81,3.41,1.94,3.41,3.44s-1.04,2.75-3.06,3.68c-2.02,0.95-4.27,1.68-6.69,2.17c-2.49,0.52-5.26,0.88-8.26,1.14
	c-3,0.26-5.65,0.36-7.84,0.36c-7.16,0-13.74-0.29-19.68-0.91c-5.95-0.62-11.83-2.09-17.6-4.42L1044,217.04z"/>
<path class="st0" d="M842.5,180.88c16.78,0,30.17,6.57,33.12,15.19h-65.9C811.98,187.19,825.14,180.88,842.5,180.88z M842.5,219.34
	c-17.02,0-30.06-7.14-32.67-16.88h80.87c0.23-0.91,0.34-1.73,0.34-2.74c0-15.6-25.29-25.24-48.32-25.24
	c-20.64,0-50.02,9.64-47.64,27.71c0,6.07,14.3,23.57,47.42,23.57c15.65,0,35.16-5.25,43.89-14.74h-15.65
	c-6.01,5.1-16.33,8.35-28.24,8.35V219.34z"/>
<path class="st0" d="M1019.17,200.62c0,10.84-14.37,18.82-33.82,18.82c-19.45,0-34.5-8.87-34.5-19.72
	c0-10.85,15.05-18.82,34.5-18.82C1004.8,180.9,1019.17,189.77,1019.17,200.62z M985.35,174.46c-21.42,0-48.68,9.3-48.68,25.44
	c0,16.13,24.95,25.93,48.45,25.93c23.27,0,48.23-11.14,48.23-25.66C1033.35,190.49,1019.17,174.46,985.35,174.46z"/>
<line class="st0" x1="686.96" y1="209.72" x2="699.34" y2="209.72"/>
<path class="st0" d="M699.34,166.06h49.34c13.96,0,24.91,6.31,24.91,14.11c0,7.79-10.95,14.11-24.91,14.11h-49.34V166.06z
	 M699.25,202.47l53.95,0.11c14.68,0,30.7-10.03,30.7-22.41c0-12.38-16.02-22.42-30.7-22.42h-66.24v69.17h12.38L699.25,202.47z"/>
<path class="st0" d="M511.64,158.57h74.7c16.55,0,34.62,15.26,34.62,34.09s-18.07,34.09-34.62,34.09h-74.7V158.57z M524.01,170.96
	h57.67c14.62,0,26.9,9.72,26.9,21.7s-12.28,21.69-26.9,21.69h-57.67V170.96z"/>
<g>
	<polygon class="st0" points="548,260.83 548,263.49 561.12,263.49 561.12,286.58 564.26,286.58 564.26,263.49 577.16,263.49 
		577.16,260.83 	"/>
	<path class="st0" d="M581.44,268.44v8.83c0,2.08-0.26,5.77,1.81,7.61c2.52,2.06,8.85,1.87,12.37,1.62c2.33-0.18,4-0.74,5.05-2.49
		v2.61h2.99v-18.18h-2.99v7.66c0,2.65,0.3,5.7-2.46,7.2c-1.79,1.01-10.17,1.24-11.93,0.17c-2.11-1.34-1.85-3.58-1.85-6.83v-8.2
		H581.44z"/>
	<path class="st0" d="M640.06,271.42c1.31,0.53,2.11,1.49,2.45,2.61c0.43,1.46,0.4,6.59-0.64,8.11c-1.6,2.28-5.39,1.99-6.32,1.99
		h-3.82c-1.47,0-4.61,0.29-6.09-2.15c-0.8-1.36-0.7-7.65,0-8.91c1.31-2.44,4.35-2.15,6.09-2.15h3.32
		C636.72,270.92,638.73,270.92,640.06,271.42z M645.77,286.71v-25.89h-3.06v9.91c-1.27-1.87-2.54-2.36-4.85-2.39h-5.59
		c-2.18,0-7.26-0.38-9.37,3.28c-1.21,2.02-1.21,9.63,0.03,11.78c2.18,3.54,5.49,3.31,8.33,3.31h5.12c2.55,0,4.45-0.1,6.33-2.75v2.75
		H645.77z"/>
	<path class="st0" d="M652.42,268.69v17.89h3.07v-17.89H652.42z M652.42,260.72v3.7h3.07v-3.7H652.42z"/>
	<path class="st0" d="M681.29,276.97c0-1.17,0.1-4.55-0.73-5.99c-1.37-2.16-4.43-2.43-6.05-2.46c-1.8-0.06-7.34-0.61-9.87,2.62v-2.7
		h-2.96v18.18h3.06v-8.41c0-2.07-0.23-5.19,2-6.53c1.75-1.07,8.31-1.07,10-0.2c2.15,1.14,1.79,4.52,1.82,5.49H681.29z"/>
	<path class="st0" d="M706.45,271.74c1.97,1.22,1.66,2.62,1.69,4.29h-17.49c0.03-1.43,0.1-3.34,1.98-4.43
		C694.53,270.55,704.54,270.61,706.45,271.74z M711.17,278.58c0.07-2.1-0.03-5.45-1-7.08c-2.12-3.39-7.71-3.06-8.78-3.06h-4.11
		c-2.75,0-6.76-0.17-8.84,3.2c-1.37,2.45-1.27,9.3,0.1,11.7c2.11,3.7,6.73,3.37,9.57,3.37h5.16c4.87,0,7.68-0.59,7.97-5.77h-2.85
		c-0.71,3.52-2.78,3.19-6.06,3.19h-5.89c-0.94,0-3.04,0.13-4.52-1.32c-1.27-1.24-1.27-2.92-1.27-4.23H711.17z"/>
	<path class="st0" d="M740.64,275.09c-0.04-1.69-0.17-2.94-0.88-3.97c-1.72-2.68-5.2-2.78-7.4-2.78h-5.69
		c-2.14,0-5.66-0.33-7.73,3.08c-1.41,2.32-1.41,9.73-0.14,11.98c2.11,3.61,6.23,3.31,8.94,3.31h5.18c1.91,0,4.86-0.29,6.51-1.86
		c1.58-1.55,1.58-3.7,1.58-5.16h-2.93c0.07,1.33-0.04,2.05-0.74,2.88c-0.97,1.26-3.14,1.59-6.62,1.56h-4.96
		c-1.6,0-3.61-0.83-4.41-2.52c-0.64-1.32-0.64-7.34,0.16-8.64c1.38-2.34,3.12-2.05,7.4-2.05h1.67c4.02,0,6.93-0.42,7.26,4.17H740.64
		z"/>
	<path class="st0" d="M748.57,263.95v4.39h-3.95v2.58h3.95v7.47c0,2.6-0.26,5.93,2.77,7.53c2.09,0.86,8.89,0.99,10.87,0.1
		c2.91-1.76,2.21-5.7,2.31-7.9h-2.34c0,1.3,0.13,4.74-1.62,5.7c-0.8,0.5-6.5,0.54-7.36,0c-1.76-1.06-1.56-3.03-1.56-6.16v-6.74
		h12.43v-2.58h-12.43v-4.39H748.57z"/>
	<path class="st0" d="M792.56,276.42v2.21c0,1.33-0.13,2.49-0.34,3.02c-0.71,1.98-2.31,2.48-4.45,2.48h-9.15
		c-2.14,0-3.74-0.5-4.45-2.48c-0.2-0.53-0.34-1.69-0.34-3.02v-2.21c0-1.33,0.14-2.49,0.34-3.02c0.71-1.98,2.31-2.48,4.45-2.48h9.15
		c2.14,0,3.74,0.5,4.45,2.48C792.43,273.93,792.56,275.09,792.56,276.42z M795.73,278.63v-2.21c0-1.63-0.13-2.98-0.44-3.74
		c-0.81-2.28-2.93-4.34-6.67-4.34h-10.85c-3.74,0-5.86,2.06-6.67,4.34c-0.3,0.76-0.4,2.11-0.44,3.74v2.21
		c0.04,1.63,0.14,2.98,0.44,3.74c0.81,2.28,2.93,4.34,6.67,4.34h10.85c3.74,0,5.86-2.06,6.67-4.34
		C795.6,281.61,795.7,280.26,795.73,278.63z"/>
	<path class="st0" d="M821.53,276.97c0-1.17,0.1-4.55-0.73-5.99c-1.36-2.16-4.43-2.43-6.05-2.46c-1.79-0.06-7.33-0.61-9.87,2.62
		v-2.7h-2.96v18.18h3.07v-8.41c0-2.07-0.24-5.19,1.99-6.53c1.76-1.07,8.31-1.07,10-0.2c2.16,1.14,1.79,4.52,1.82,5.49H821.53z"/>
	<path class="st0" d="M827.68,268.69v17.89h3.06v-17.89H827.68z M827.68,260.72v3.7h3.06v-3.7H827.68z"/>
	<path class="st0" d="M858.83,276.42v2.21c0,1.33-0.13,2.49-0.34,3.02c-0.71,1.98-2.31,2.48-4.45,2.48h-9.15
		c-2.14,0-3.74-0.5-4.45-2.48c-0.2-0.53-0.34-1.69-0.34-3.02v-2.21c0-1.33,0.14-2.49,0.34-3.02c0.71-1.98,2.31-2.48,4.45-2.48h9.15
		c2.14,0,3.74,0.5,4.45,2.48C858.7,273.93,858.83,275.09,858.83,276.42z M862,278.63v-2.21c0-1.63-0.13-2.98-0.44-3.74
		c-0.81-2.28-2.93-4.34-6.67-4.34h-10.85c-3.74,0-5.86,2.06-6.67,4.34c-0.3,0.76-0.4,2.11-0.44,3.74v2.21
		c0.04,1.63,0.14,2.98,0.44,3.74c0.81,2.28,2.93,4.34,6.67,4.34h10.85c3.74,0,5.86-2.06,6.67-4.34
		C861.87,281.61,861.97,280.26,862,278.63z"/>
	<path class="st0" d="M898.75,271.42c1.27,0.53,2.06,1.49,2.38,2.61c0.43,1.46,0.4,6.59-0.62,8.11c-1.56,2.28-5.25,1.99-6.17,1.99
		h-3.72c-1.44,0-4.5,0.29-5.94-2.15c-0.78-1.36-0.69-7.65,0-8.91c1.27-2.44,4.24-2.15,5.94-2.15h3.23
		C895.49,270.92,897.44,270.92,898.75,271.42z M904.32,286.71v-25.89h-2.99v9.91c-1.24-1.87-2.48-2.36-4.73-2.39h-5.46
		c-2.12,0-7.08-0.38-9.14,3.28c-1.17,2.02-1.17,9.63,0.04,11.78c2.12,3.54,5.35,3.31,8.12,3.31h5c2.48,0,4.34-0.1,6.17-2.75v2.75
		H904.32z"/>
	<path class="st0" d="M929.35,271.74c1.93,1.22,1.63,2.62,1.66,4.29h-17.07c0.04-1.43,0.1-3.34,1.93-4.43
		C917.73,270.55,927.49,270.61,929.35,271.74z M933.96,278.58c0.07-2.1-0.03-5.45-0.97-7.08c-2.07-3.39-7.52-3.06-8.57-3.06h-4.01
		c-2.68,0-6.6-0.17-8.62,3.2c-1.34,2.45-1.24,9.3,0.1,11.7c2.05,3.7,6.56,3.37,9.33,3.37h5.03c4.76,0,7.5-0.59,7.78-5.77h-2.78
		c-0.69,3.52-2.71,3.19-5.91,3.19h-5.75c-0.91,0-2.97,0.13-4.4-1.32c-1.25-1.24-1.25-2.92-1.25-4.23H933.96z"/>
	<path class="st0" d="M970.92,271.74c1.97,1.22,1.66,2.62,1.69,4.29h-17.43c0.03-1.43,0.1-3.34,1.97-4.43
		C959.05,270.55,969.02,270.61,970.92,271.74z M975.63,278.58c0.07-2.1-0.03-5.45-0.99-7.08c-2.12-3.39-7.69-3.06-8.75-3.06h-4.11
		c-2.73,0-6.73-0.17-8.8,3.2c-1.37,2.45-1.27,9.3,0.1,11.7c2.1,3.7,6.7,3.37,9.54,3.37h5.13c4.86,0,7.66-0.59,7.95-5.77h-2.84
		c-0.7,3.52-2.77,3.19-6.04,3.19h-5.87c-0.94,0-3.04,0.13-4.5-1.32c-1.27-1.24-1.27-2.92-1.27-4.23H975.63z"/>
	<path class="st0" d="M990.22,279.03h6.13c2.89,0,4.73-0.14,5.49,1.02c0.4,0.6,0.4,2.2-0.03,2.87c-0.96,1.4-3.29,1.21-6.37,1.21
		h-5.81c-2.46,0-3.11-0.1-3.9-0.86c-0.63-0.54-0.73-1.57-0.73-2.81h-2.79c0,1.98,0.04,3,0.78,4c1.54,2.22,3.98,2.25,6.44,2.25h8.01
		c1.77,0,5.51,0.13,7.12-2.45c0.97-1.5,0.83-3.86,0.07-5.27c-1.48-2.62-4.96-2.55-7.46-2.55h-4.98c-3.08,0-5.41,0.2-6.36-1.31
		c-0.43-0.72-0.43-2.45-0.04-3.1c0.76-1.24,2.6-1.1,5.48-1.1h5.58c2.65,0,4.55-0.3,4.82,3.13h2.79c0-1.72,0-2.82-1.04-3.95
		c-1.28-1.38-4.02-1.77-5.92-1.77h-7.05c-2.49,0-5.92-0.07-7.4,2.55c-0.8,1.52-0.94,4.07,0.04,5.68
		C984.7,279.15,988.42,279.03,990.22,279.03z"/>
	<path class="st0" d="M1013.37,263.95v4.39h-3.93v2.58h3.93v7.47c0,2.6-0.27,5.93,2.75,7.53c2.09,0.86,8.87,0.99,10.85,0.1
		c2.89-1.76,2.2-5.7,2.29-7.9h-2.32c0,1.3,0.13,4.74-1.62,5.7c-0.8,0.5-6.48,0.54-7.34,0c-1.75-1.06-1.55-3.03-1.55-6.16v-6.74
		h12.39v-2.58h-12.39v-4.39H1013.37z"/>
	<path class="st0" d="M1035.39,268.69v17.89h3.06v-17.89H1035.39z M1035.39,260.72v3.7h3.06v-3.7H1035.39z"/>
	<rect x="1044.61" y="260.82" class="st0" width="3.06" height="25.8"/>
	<path class="st0" d="M1075.67,276.42v2.21c0,1.33-0.13,2.49-0.34,3.02c-0.71,1.98-2.3,2.48-4.44,2.48h-9.11
		c-2.14,0-3.73-0.5-4.44-2.48c-0.21-0.53-0.34-1.69-0.34-3.02v-2.21c0-1.33,0.13-2.49,0.34-3.02c0.71-1.98,2.3-2.48,4.44-2.48h9.11
		c2.14,0,3.73,0.5,4.44,2.48C1075.54,273.93,1075.67,275.09,1075.67,276.42z M1078.83,278.63v-2.21c0-1.63-0.14-2.98-0.44-3.74
		c-0.8-2.28-2.92-4.34-6.65-4.34h-10.81c-3.73,0-5.85,2.06-6.65,4.34c-0.31,0.76-0.41,2.11-0.44,3.74v2.21
		c0.03,1.63,0.13,2.98,0.44,3.74c0.8,2.28,2.92,4.34,6.65,4.34h10.81c3.73,0,5.85-2.06,6.65-4.34
		C1078.69,281.61,1078.79,280.26,1078.83,278.63z"/>
	<rect x="1085" y="282.11" class="st0" width="4" height="4.59"/>
</g>
<g>
	<g>
		<path class="st0" d="M1129.5,147.24c3.86,0,6.98,3.12,6.98,6.98s-3.12,6.98-6.98,6.98s-6.98-3.12-6.98-6.98
			S1125.64,147.24,1129.5,147.24z M1129.5,145.72c4.69,0,8.5,3.81,8.5,8.5s-3.81,8.5-8.5,8.5s-8.5-3.81-8.5-8.5
			S1124.81,145.72,1129.5,145.72z"/>
	</g>
	<path class="st0" d="M1130.17,151.53c0.36,0.12,0.73,0.12,0.97,0.37c0.12,0.12,0.24,0.61,0.24,0.97c0,0.74-0.36,1.35-1.21,1.35
		h-2.19v-2.69H1130.17z M1130.05,150.43c1.94,0,2.55,0.98,2.55,2.44c0,0.74-0.37,1.84-1.58,2.33c0.48,0.85,1.21,1.83,1.82,2.69
		h-1.34l-1.82-2.57h-1.82v2.57h-1.09v-7.46H1130.05z"/>
</g>
<path class="st1" d="M908,207.47"/>
<path class="st0" d="M908,208.47c0.13,7.44,5.66,13.92,13.85,17.44l0.12-24.19v-43.86h-14.18c0,0,0,27.71,0.03,43.86L908,208.47z"/>
<path class="st2" d="M654.76,170.53c4.66-3.04,7.34-6.45,8.06-10.23c0.51-2.76-0.06-5.02-1.73-6.86c-1.67-1.8-4-2.72-6.96-2.72
	c-3.01,0-5.67,0.75-7.94,2.21c-2.29,1.49-3.64,3.29-4.03,5.44c-0.35,1.98,0.12,3.65,1.44,4.99c1.31,1.38,3.07,2.04,5.34,2.04
	c1.34,0,2.96-0.52,4.87-1.55c-2.39,4.19-7.26,7.6-14.54,10.29l-0.27,1.58C644.82,175.32,650.07,173.57,654.76,170.53z"/>
<path class="st0" d="M237,219.72c0.17-0.02,0.3-0.02,0.39-0.01"/>
<path class="st3" d="M157.71,225.63c16.76-7.64,38.64-12.37,62.58-12.59c11.87-0.11,23.23,0.89,33.71,2.82"/>
<path class="st0" d="M253.63,216.9c-11.49-2.4-25.7-3.49-41.18-2.82c-21.49,0.93-40.97,5.04-54.31,10.8
	c-26.23,11.35-40.71,30.1-40.57,47.79c-0.26,9.8,3.41,19.04,10.11,27.14l1.62,1.63c19.7,20.77,60.17,32.04,106.81,26.9
	c26.88-2.97,50.14-10.36,69.96-21.44c5.63-3.14,13.47-7.45,18.09-11.17c3.56-2.66,13.54-10.22,16.8-14.35c0,0,1.57,1.28,1.71,1.16
	c16.58-19.79,28.31-43.14,33.8-69.5c1.95-9.67,2.97-19.63,2.97-29.82c0-1.22-0.02-2.44-0.04-3.65c-0.01-0.12-0.4,0.21-0.4,0.21
	c0,47.9-36.64,89.05-89,106.94c-4.65,1.8-26.89,8.04-26.89,8.04c-7.43,1.5-15.43,2.81-23.49,3.66c-23.44,2.49-44.84,1.53-60.99-2.07
	c-1.4-0.31-7.73-2.5-7.73-2.5c-15.84-5.62-27.33-14.6-29.07-26.17l-0.26-1.68c0.1-4.85,1.68-9.42,5.43-15.28
	c3.5-5.09,8.44-9.55,14.26-12.99l2.91-1.77c10.95-6.98,28.54-13.64,47.08-16.43c9.59-1.44,18.98-2,27.75-1.75L253.63,216.9z"/>
<path class="st0" d="M232.84,219.22c-29.22,3.84-52.43,14.8-58.84,27.5c0,0,31.43,0.24,47-0.14c4.44-0.1,8.61-0.28,12.3-0.57
	c30.9-3.09,60-10.81,75.09-27.09c9.11-9.82,14.45-23.09,14.61-36.77c0.38-32.99-30.09-63.43-105.05-63.43H98v124.11
	c7.07-11.89,23.7-26.75,34.82-31.4c0.53-0.21,0-57.23,0-63.22h96.31c19.47,1.12,33.2,4.35,42.57,9.12
	c12.72,6.46,16.85,14.95,16.92,25.6c0.08,12.51-11.78,26.86-24.84,30.59c-5.19,1.48-12.78,4.2-21.11,4.73
	C235.17,218.72,232.84,219.22,232.84,219.22z"/>
<path class="st4" d="M170,226.72l-12.29-1.09c16.76-7.64,38.64-12.37,62.58-12.59c11.87-0.11,23.23,0.89,33.71,2.82l-14-0.14
	c0,0-28.33,0.83-29,1s-30,5-30,5L170,226.72z"/>
<path class="st5" d="M238,218.72l-20,2l-13.43,0.29c12.67-2.66,28.65-4.26,46.02-4.29l-9.59,2H238z"/>
</svg>
