<svg id="Layer_1" enable-background="new 0 0 512 512" height="512" viewBox="0 0 512 512" width="512" xmlns="http://www.w3.org/2000/svg"><g><path d="m496 480h-11.507l-12.97-51.88c-1.782-7.123-8.181-12.12-15.523-12.12h-56v-24h48c8.837 0 16-7.164 16-16s-7.163-16-16-16v-8c0-100.481-77.59-183.17-176-191.328v-24.672h24c8.837 0 16-7.164 16-16s-7.163-16-16-16h-80c-8.837 0-16 7.164-16 16s7.163 16 16 16h24v24.672c-98.41 8.158-176 90.847-176 191.328v8c-8.837 0-16 7.164-16 16s7.163 16 16 16h48v24h-56c-7.342 0-13.741 4.997-15.522 12.12l-12.971 51.88h-11.507c-8.837 0-16 7.164-16 16s7.163 16 16 16h480c8.837 0 16-7.164 16-16s-7.163-16-16-16zm-400-128c0-88.224 71.775-160 160-160s160 71.776 160 160v8c-48.629 0-305.697 0-320 0zm48 40h224v24h-224zm-83.508 88 8-32h375.016l8 32z"/><path d="m16 272h32c8.837 0 16-7.164 16-16s-7.163-16-16-16h-32c-8.837 0-16 7.164-16 16s7.163 16 16 16z"/><path d="m464 272h32c8.837 0 16-7.164 16-16s-7.163-16-16-16h-32c-8.837 0-16 7.164-16 16s7.163 16 16 16z"/><path d="m97.608 120.236c6.248 6.248 16.379 6.249 22.627 0 6.249-6.249 6.249-16.379 0-22.627l-22.628-22.629c-6.248-6.248-16.379-6.249-22.627 0-6.249 6.249-6.249 16.379 0 22.627z"/><path d="m403.078 124.922c4.095 0 8.189-1.563 11.313-4.686l22.628-22.627c6.249-6.249 6.249-16.379 0-22.627-6.247-6.248-16.378-6.248-22.627 0l-22.628 22.627c-10.108 10.107-2.812 27.313 11.314 27.313z"/><path d="m256 64c8.837 0 16-7.164 16-16v-32c0-8.836-7.163-16-16-16s-16 7.164-16 16v32c0 8.836 7.163 16 16 16z"/></g></svg>