<?xml version="1.0" encoding="utf-8"?>
<!-- Generator: Adobe Illustrator 25.0.0, SVG Export Plug-In . SVG Version: 6.00 Build 0)  -->
<svg version="1.1" id="Capa_1" xmlns="http://www.w3.org/2000/svg" xmlns:xlink="http://www.w3.org/1999/xlink" x="0px" y="0px"
	 viewBox="0 0 384 278" style="enable-background:new 0 0 384 278;" xml:space="preserve">
<style type="text/css">
	.st0{clip-path:url(#SVGID_2_);fill:none;stroke:#000000;stroke-width:22.4999;stroke-miterlimit:10;}
</style>
<g>
	<g>
		<defs>
			<rect id="SVGID_1_" y="1" width="384" height="278"/>
		</defs>
		<clipPath id="SVGID_2_">
			<use xlink:href="#SVGID_1_"  style="overflow:visible;"/>
		</clipPath>
		<path class="st0" d="M193.33,79.57c0,37.18-29.5,67.31-65.89,67.31c-36.39,0-65.88-30.14-65.88-67.31
			c0-37.18,29.5-67.32,65.88-67.32C163.84,12.25,193.33,42.39,193.33,79.57L193.33,79.57z M193.33,79.57 M29.4,267.25
			c-11.23,0-19.88-10.34-17.87-21.63c9.97-56.16,58.07-98.75,115.92-98.75c57.84,0,105.95,42.59,115.92,98.75
			c2,11.29-6.65,21.63-17.88,21.63H29.4z M29.4,267.25 M333.78,70.21c0,28.78-22.83,52.11-51,52.11c-28.17,0-51-23.33-51-52.11
			s22.83-52.11,51-52.11C310.95,18.1,333.78,41.43,333.78,70.21L333.78,70.21z M333.78,70.21 M201.35,173.5
			c15.03-30.36,45.85-51.18,81.44-51.18c44.77,0,82.01,32.97,89.73,76.44c1.55,8.73-5.15,16.74-13.84,16.74H233.84"/>
	</g>
</g>
<g>
</g>
<g>
</g>
<g>
</g>
<g>
</g>
<g>
</g>
<g>
</g>
</svg>
